<svg width="35" height="35" viewBox="0 0 35 35" fill="none" xmlns="http://www.w3.org/2000/svg">
<g clip-path="url(#clip0)">
<path d="M12.2711 4.38088V3.08025C12.2711 2.79613 12.5022 2.56488 12.7863 2.56488H13.6137C14.4822 2.56488 15.2746 2.03747 15.6322 1.22108C15.9575 0.479148 16.6907 -0.000244141 17.4999 -0.000244141C18.3091 -0.000244141 19.0425 0.479148 19.3675 1.22091C19.7254 2.0373 20.5175 2.56471 21.3859 2.56471H22.2134C22.4975 2.56471 22.7286 2.79579 22.7286 3.08008V4.38072C22.7286 4.66484 22.4975 4.89608 22.2134 4.89608H12.7861C12.5022 4.89608 12.2711 4.66501 12.2711 4.38088ZM10.4653 28.6788H12.8777V26.2664H10.4653V28.6788ZM10.4653 14.1714H12.8777V11.759H10.4653V14.1714ZM29.6052 7.79486V31.6487C29.6052 33.4963 28.1021 34.9996 26.2543 34.9996H8.74569C6.8979 34.9996 5.3948 33.4963 5.3948 31.6487V7.79486C5.3948 5.94723 6.8979 4.44397 8.74569 4.44397H10.601C10.6348 5.62128 11.601 6.56936 12.7863 6.56936H22.2135C23.3989 6.56936 24.365 5.62128 24.3988 4.44397H26.2541C28.1021 4.44397 29.6052 5.94723 29.6052 7.79486ZM15.8737 12.9509C15.8737 13.4129 16.2481 13.7875 16.7103 13.7875H24.2623C24.7244 13.7875 25.0989 13.4129 25.0989 12.9509C25.0989 12.4889 24.7244 12.1142 24.2623 12.1142H16.7103C16.2481 12.1142 15.8737 12.4889 15.8737 12.9509ZM15.8737 20.2882C15.8737 20.7502 16.2481 21.1248 16.7103 21.1248H23.4216C23.8838 21.1248 24.2583 20.7502 24.2583 20.2882C24.2583 19.8262 23.8838 19.4515 23.4216 19.4515H16.7103C16.2481 19.4515 15.8737 19.826 15.8737 20.2882ZM14.5509 25.4298C14.5509 24.9678 14.1765 24.5932 13.7143 24.5932H9.62868C9.16652 24.5932 8.79204 24.9678 8.79204 25.4298V29.5154C8.79204 29.9774 9.16652 30.3521 9.62868 30.3521H13.7143C14.1765 30.3521 14.5509 29.9774 14.5509 29.5154V25.4298ZM14.5509 18.176C14.5509 17.714 14.1765 17.3394 13.7143 17.3394H9.62868C9.16652 17.3394 8.79204 17.714 8.79204 18.176V22.2616C8.79204 22.7236 9.16652 23.0983 9.62868 23.0983H13.7143C14.1765 23.0983 14.5509 22.7236 14.5509 22.2616V18.176ZM14.5509 10.9224C14.5509 10.4604 14.1765 10.0857 13.7143 10.0857H9.62868C9.16652 10.0857 8.79204 10.4604 8.79204 10.9224V15.008C8.79204 15.47 9.16652 15.8446 9.62868 15.8446H13.7143C14.1765 15.8446 14.5509 15.47 14.5509 15.008V10.9224ZM25.5181 27.6253C25.5181 27.1633 25.1436 26.7887 24.6814 26.7887H16.7103C16.2481 26.7887 15.8737 27.1633 15.8737 27.6253C15.8737 28.0873 16.2481 28.4619 16.7103 28.4619H24.6816C25.1436 28.4619 25.5181 28.0873 25.5181 27.6253ZM10.4653 21.425H12.8777V19.0126H10.4653V21.425Z" fill="#DDA12F"/>
</g>
<defs>
<clipPath id="clip0">
<rect width="35" height="35" fill="white" transform="translate(0 -0.000244141)"/>
</clipPath>
</defs>
</svg>
