<svg width="40" height="40" viewBox="0 0 40 40" fill="none" xmlns="http://www.w3.org/2000/svg">
<g clip-path="url(#clip0)">
<path d="M18.9934 4.00643C20.0999 4.00643 20.9968 3.10951 20.9968 2.00309C20.9968 0.896681 20.0999 -0.000244141 18.9934 -0.000244141C17.887 -0.000244141 16.9901 0.896681 16.9901 2.00309C16.9901 3.10951 17.887 4.00643 18.9934 4.00643Z" fill="#DDA12F"/>
<path d="M29.6076 4.00643C30.714 4.00643 31.6109 3.10951 31.6109 2.00309C31.6109 0.896681 30.714 -0.000244141 29.6076 -0.000244141C28.5012 -0.000244141 27.6042 0.896681 27.6042 2.00309C27.6042 3.10951 28.5012 4.00643 29.6076 4.00643Z" fill="#DDA12F"/>
<path d="M35.5765 3.82508C34.5586 2.06215 32.7357 1.00972 30.7 1.00972V2.99657C32.0174 2.99657 33.197 3.67766 33.8559 4.81851C34.5147 5.95955 34.5147 7.32173 33.8561 8.46278L27.4739 19.5168C26.8153 20.6576 25.6355 21.3387 24.318 21.3389C23.0005 21.3389 21.8207 20.6578 21.1619 19.5168L14.7799 8.46258C14.1213 7.32173 14.1213 5.95935 14.7799 4.81851C15.4386 3.67766 16.6186 2.99637 17.936 2.99637V1.00952C15.9003 1.00952 14.0772 2.06195 13.0593 3.82508C12.0415 5.58821 12.0415 7.69308 13.0593 9.45601L19.4413 20.51C20.2901 21.9801 21.6995 22.9536 23.3246 23.2374V28.5685C23.3246 33.7762 20.2503 38.013 16.4715 38.013C12.6928 38.013 9.61871 33.7762 9.61871 28.5685V22.2209C11.8817 21.7596 13.59 19.7536 13.59 17.3559C13.59 14.6182 11.3628 12.391 8.62509 12.391C5.88741 12.391 3.66016 14.6182 3.66016 17.3559C3.66016 19.7534 5.36845 21.7594 7.63166 22.2209V28.5685C7.63166 34.8717 11.5972 39.9998 16.4715 39.9998C21.3457 39.9998 25.3112 34.8717 25.3112 28.5685V23.2374C26.9361 22.9536 28.3457 21.9801 29.1943 20.51L35.5765 9.45601C36.5945 7.69308 36.5945 5.58801 35.5765 3.82508Z" fill="#DDA12F"/>
</g>
<defs>
<clipPath id="clip0">
<rect width="40" height="40" fill="white" transform="translate(0 -0.000244141)"/>
</clipPath>
</defs>
</svg>
