<svg width="40" height="40" viewBox="0 0 40 40" fill="none" xmlns="http://www.w3.org/2000/svg">
<path d="M38.568 22.4705L38.4738 22.383C38.4161 22.33 38.3585 22.2768 38.3029 22.2212L29.3175 13.2383C29.2978 13.2186 29.2774 13.1999 29.256 13.182C28.8096 12.807 28.2885 12.5367 27.7332 12.3842V10.1835C27.7332 9.65097 27.3015 9.21947 26.7692 9.21947H22.3989C21.8665 9.21947 21.4349 9.65097 21.4349 10.1835V12.2399H2.84849C1.27772 12.2399 0 13.5179 0 15.0884V32.1545C0 32.6871 0.431689 33.1186 0.964023 33.1186H3.48205C3.92126 35.0339 5.63818 36.4674 7.685 36.4674C9.73181 36.4674 11.4487 35.0339 11.8879 33.1186H28.4105C28.8497 35.0339 30.5667 36.4674 32.6133 36.4674C34.662 36.4674 36.3805 35.031 36.8176 33.1128C38.5823 33.0515 40 31.6006 40 29.8212V25.7789C40 24.5307 39.4781 23.3249 38.568 22.4705ZM23.3631 11.1475H25.8053V12.2399H23.3631V11.1475ZM7.6848 34.5393C6.36988 34.5393 5.3 33.4695 5.3 32.1545C5.3 30.8396 6.36988 29.7697 7.6848 29.7697C8.99973 29.7697 10.0696 30.8396 10.0696 32.1545C10.0696 33.4695 8.99992 34.5393 7.6848 34.5393ZM12.6441 20.7131C12.6441 21.2457 12.2124 21.6772 11.6801 21.6772H10.1157V23.2416C10.1157 23.7741 9.68399 24.2056 9.15166 24.2056H7.28801C6.75568 24.2056 6.32399 23.7741 6.32399 23.2416V21.6772H4.75957C4.22724 21.6772 3.79555 21.2457 3.79555 20.7131V18.8495C3.79555 18.317 4.22724 17.8855 4.75957 17.8855H6.32399V16.321C6.32399 15.7885 6.75568 15.357 7.28801 15.357H9.15185C9.68419 15.357 10.1159 15.7885 10.1159 16.321V17.8855H11.6803C12.2126 17.8855 12.6443 18.317 12.6443 18.8495V20.7131H12.6441ZM24.3917 21.6509C23.9234 21.6509 23.5426 21.2699 23.5426 20.8018V16.2518C23.5426 15.991 23.7547 15.7791 24.0155 15.7791H27.0512C27.3511 15.7791 27.6329 15.8957 27.845 16.1078L32.4831 20.7461C32.7091 20.9721 32.6387 21.2252 32.598 21.3237C32.5574 21.4221 32.428 21.6509 32.1081 21.6509H24.3917ZM32.6133 34.5393C31.2983 34.5393 30.2285 33.4695 30.2285 32.1545C30.2285 30.8396 31.2982 29.7697 32.6133 29.7697C33.9284 29.7697 34.9981 30.8396 34.9981 32.1545C34.9981 33.4695 33.9282 34.5393 32.6133 34.5393ZM24.5841 8.15905C24.0518 8.15905 23.6201 7.72755 23.6201 7.19502V4.49576C23.6201 3.96323 24.0518 3.53174 24.5841 3.53174C25.1165 3.53174 25.5481 3.96323 25.5481 4.49576V7.19502C25.5481 7.72755 25.1166 8.15905 24.5841 8.15905ZM29.2645 8.97847C29.0177 8.97847 28.7711 8.88438 28.5827 8.69601C28.2061 8.31965 28.2061 7.70923 28.5827 7.33288L30.2834 5.63215C30.6598 5.2556 31.2702 5.2556 31.6467 5.63215C32.0233 6.00851 32.0233 6.61892 31.6467 6.99528L29.946 8.69601C29.758 8.88438 29.5112 8.97847 29.2645 8.97847ZM20.3573 8.97847C20.1105 8.97847 19.8639 8.88438 19.6755 8.69601L17.9748 6.99528C17.5982 6.61892 17.5982 6.00851 17.9748 5.63215C18.3513 5.2556 18.9616 5.2556 19.3381 5.63215L21.0388 7.33288C21.4154 7.70923 21.4154 8.31965 21.0388 8.69601C20.8508 8.88438 20.6041 8.97847 20.3573 8.97847Z" fill="#DDA12F"/>
</svg>
