<svg width="35" height="35" viewBox="0 0 35 35" fill="none" xmlns="http://www.w3.org/2000/svg">
<path d="M35 17.8632V28.8004C35 29.204 34.6727 29.5313 34.2691 29.5313H31.4909C31.0873 29.5313 30.76 29.204 30.76 28.8004V26.8102H4.23995V28.8004C4.23995 29.204 3.91269 29.5313 3.5091 29.5313H0.730858C0.327262 29.5313 0 29.204 0 28.8004V13.9483C0 12.7792 0.950928 11.8283 2.11998 11.8283C3.28903 11.8283 4.24012 12.7792 4.24012 13.9483V22.2627H30.76V17.8632C30.76 16.6942 31.711 15.7432 32.88 15.7432C34.0491 15.7432 35 16.6942 35 17.8632ZM6.68248 21.3293H13.8313C14.5574 21.3293 15.146 20.7407 15.146 20.0145C15.146 19.2884 14.5572 18.6998 13.8313 18.6998H6.68248C5.95633 18.6998 5.36775 19.2886 5.36775 20.0145C5.36759 20.7407 5.95633 21.3293 6.68248 21.3293ZM17.632 13.1232C17.7082 13.1992 17.8113 13.2418 17.919 13.2418C17.9192 13.2418 17.9193 13.2418 17.9193 13.2418L20.8155 13.2392V16.1353C20.8155 16.3596 20.9972 16.5413 21.2215 16.5413H24.8739C25.0982 16.5413 25.2799 16.3596 25.2799 16.1353V13.2351L28.18 13.2325C28.4042 13.2323 28.5858 13.0503 28.5857 12.8261L28.5822 9.1738C28.5821 9.06612 28.5392 8.96298 28.4632 8.88681C28.387 8.8108 28.2839 8.76825 28.1762 8.76825C28.1761 8.76825 28.1759 8.76825 28.1759 8.76825L25.2797 8.77085V5.87454C25.2797 5.65025 25.098 5.46851 24.8737 5.46851H21.2214C20.9971 5.46851 20.8153 5.65025 20.8153 5.87454V8.77475L17.9153 8.77735C17.691 8.77751 17.5094 8.95957 17.5096 9.1837L17.513 12.836C17.513 12.9439 17.5559 13.047 17.632 13.1232Z" fill="#DDA12F"/>
</svg>
